HIERARCHY
ROOT Hips
{
  OFFSET 5.84602e-005 68.8428 3.50346
  CHANNELS 6 Xposition Yposition Zposition Zrotation Xrotation Yrotation
  JOINT Spine
  {
    OFFSET 0 8.597 -4.6522
    CHANNELS 3 Zrotation Xrotation Yrotation
    JOINT Spine1
    {
      OFFSET 0 7.8454 0.4098
      CHANNELS 3 Zrotation Xrotation Yrotation
      JOINT Spine2
      {
        OFFSET 0 9.7078 -2.1609
        CHANNELS 3 Zrotation Xrotation Yrotation
        JOINT Neck
        {
          OFFSET 0 21.8761 -0.4549
          CHANNELS 3 Zrotation Xrotation Yrotation
          JOINT Head
          {
            OFFSET 0 12.3537 3.3602
            CHANNELS 3 Zrotation Xrotation Yrotation
            End Site
            {
              OFFSET 0.0001 18.9506 0.5657
            }
          }
        }
        JOINT LeftShoulder
        {
          OFFSET 2.2086 21.1115 7.2329
          CHANNELS 3 Zrotation Xrotation Yrotation
          JOINT LeftArm
          {
            OFFSET 13.1193 3.0282 -4.8998
            CHANNELS 3 Zrotation Xrotation Yrotation
            JOINT LeftForeArm
            {
              OFFSET 27.4081 -0.0973053 -0.2375
              CHANNELS 3 Zrotation Xrotation Yrotation
              JOINT LeftHand
              {
                OFFSET 22.8641 0.0662994 -0.1369
                CHANNELS 3 Zrotation Xrotation Yrotation
                JOINT LeftHandIndex1
                {
                  OFFSET 8.8614 0.775009 2.4612
                  CHANNELS 3 Zrotation Xrotation Yrotation
                  JOINT LeftHandIndex2
                  {
                    OFFSET 3.3146 -0.808304 0.5841
                    CHANNELS 3 Zrotation Xrotation Yrotation
                    JOINT LeftHandIndex3
                    {
                      OFFSET 2.2628 -0.552002 0.3989
                      CHANNELS 3 Zrotation Xrotation Yrotation
                      End Site
                      {
                        OFFSET 1.6102 -0.4807 0.2612
                      }
                    }
                  }
                }
                JOINT LeftHandMiddle1
                {
                  OFFSET 8.9937 0.895004 0.2143
                  CHANNELS 3 Zrotation Xrotation Yrotation
                  JOINT LeftHandMiddle2
                  {
                    OFFSET 4.0984 0.0113983 -0.0242
                    CHANNELS 3 Zrotation Xrotation Yrotation
                    JOINT LeftHandMiddle3
                    {
                      OFFSET 2.2716 0.00689697 -0.0138001
                      CHANNELS 3 Zrotation Xrotation Yrotation
                      End Site
                      {
                        OFFSET 2.0404 -0.1441 0.0027
                      }
                    }
                  }
                }
                JOINT LeftHandRing1
                {
                  OFFSET 8.5234 0.597198 -2.0164
                  CHANNELS 3 Zrotation Xrotation Yrotation
                  JOINT LeftHandRing2
                  {
                    OFFSET 3.7188 -0.188293 -0.2328
                    CHANNELS 3 Zrotation Xrotation Yrotation
                    JOINT LeftHandRing3
                    {
                      OFFSET 2.1191 -0.106598 -0.1332
                      CHANNELS 3 Zrotation Xrotation Yrotation
                      End Site
                      {
                        OFFSET 1.8737 -0.2304 -0.0886
                      }
                    }
                  }
                }
                JOINT LeftHandPinky1
                {
                  OFFSET 7.9094 -0.601089 -3.4825
                  CHANNELS 3 Zrotation Xrotation Yrotation
                  JOINT LeftHandPinky2
                  {
                    OFFSET 2.2874 -0.477005 -0.6314
                    CHANNELS 3 Zrotation Xrotation Yrotation
                    JOINT LeftHandPinky3
                    {
                      OFFSET 1.6774 -0.349396 -0.4633
                      CHANNELS 3 Zrotation Xrotation Yrotation
                      End Site
                      {
                        OFFSET 1.4888 -0.4091 -0.3416
                      }
                    }
                  }
                }
                JOINT LeftHandThumb1
                {
                  OFFSET 1.833 -1.3875 1.3896
                  CHANNELS 3 Zrotation Xrotation Yrotation
                  JOINT LeftHandThumb2
                  {
                    OFFSET 3.4129 -1.121 2.5732
                    CHANNELS 3 Zrotation Xrotation Yrotation
                    JOINT LeftHandThumb3
                    {
                      OFFSET 2.2474 -0.804199 1.6192
                      CHANNELS 3 Zrotation Xrotation Yrotation
                      End Site
                      {
                        OFFSET 1.6527 -0.5689 1.1317
                      }
                    }
                  }
                }
              }
            }
          }
        }
        JOINT RightShoulder
        {
          OFFSET -2.2086 21.1115 7.2329
          CHANNELS 3 Zrotation Xrotation Yrotation
          JOINT RightArm
          {
            OFFSET -13.1216 3.0287 -4.9007
            CHANNELS 3 Zrotation Xrotation Yrotation
            JOINT RightForeArm
            {
              OFFSET -27.4081 -0.0973053 -0.2375
              CHANNELS 3 Zrotation Xrotation Yrotation
              JOINT RightHand
              {
                OFFSET -22.8641 0.0664063 -0.1369
                CHANNELS 3 Zrotation Xrotation Yrotation
                JOINT RightHandIndex1
                {
                  OFFSET -8.8614 0.774994 2.4612
                  CHANNELS 3 Zrotation Xrotation Yrotation
                  JOINT RightHandIndex2
                  {
                    OFFSET -3.3146 -0.808304 0.5841
                    CHANNELS 3 Zrotation Xrotation Yrotation
                    JOINT RightHandIndex3
                    {
                      OFFSET -2.2628 -0.552002 0.3989
                      CHANNELS 3 Zrotation Xrotation Yrotation
                      End Site
                      {
                        OFFSET -1.6102 -0.4807 0.2612
                      }
                    }
                  }
                }
                JOINT RightHandMiddle1
                {
                  OFFSET -8.9937 0.894989 0.2143
                  CHANNELS 3 Zrotation Xrotation Yrotation
                  JOINT RightHandMiddle2
                  {
                    OFFSET -4.0984 0.0113983 -0.0242
                    CHANNELS 3 Zrotation Xrotation Yrotation
                    JOINT RightHandMiddle3
                    {
                      OFFSET -2.2716 0.00691223 -0.0138001
                      CHANNELS 3 Zrotation Xrotation Yrotation
                      End Site
                      {
                        OFFSET -2.0404 -0.1441 0.0027
                      }
                    }
                  }
                }
                JOINT RightHandRing1
                {
                  OFFSET -8.5234 0.597198 -2.0164
                  CHANNELS 3 Zrotation Xrotation Yrotation
                  JOINT RightHandRing2
                  {
                    OFFSET -3.7188 -0.188309 -0.2328
                    CHANNELS 3 Zrotation Xrotation Yrotation
                    JOINT RightHandRing3
                    {
                      OFFSET -2.1191 -0.106598 -0.1332
                      CHANNELS 3 Zrotation Xrotation Yrotation
                      End Site
                      {
                        OFFSET -1.8737 -0.2304 -0.0886
                      }
                    }
                  }
                }
                JOINT RightHandPinky1
                {
                  OFFSET -7.9094 -0.601105 -3.4825
                  CHANNELS 3 Zrotation Xrotation Yrotation
                  JOINT RightHandPinky2
                  {
                    OFFSET -2.2874 -0.477005 -0.6314
                    CHANNELS 3 Zrotation Xrotation Yrotation
                    JOINT RightHandPinky3
                    {
                      OFFSET -1.6774 -0.349396 -0.4633
                      CHANNELS 3 Zrotation Xrotation Yrotation
                      End Site
                      {
                        OFFSET -1.4888 -0.4091 -0.3416
                      }
                    }
                  }
                }
                JOINT RightHandThumb1
                {
                  OFFSET -1.833 -1.38751 1.3896
                  CHANNELS 3 Zrotation Xrotation Yrotation
                  JOINT RightHandThumb2
                  {
                    OFFSET -3.41299 -1.12099 2.5732
                    CHANNELS 3 Zrotation Xrotation Yrotation
                    JOINT RightHandThumb3
                    {
                      OFFSET -2.24741 -0.804108 1.6192
                      CHANNELS 3 Zrotation Xrotation Yrotation
                      End Site
                      {
                        OFFSET -1.6527 -0.5689 1.1317
                      }
                    }
                  }
                }
              }
            }
          }
        }
      }
    }
  }
  JOINT RightUpLeg
  {
    OFFSET -9.1966 3.8861 -0.7581
    CHANNELS 3 Zrotation Xrotation Yrotation
    JOINT RightLeg
    {
      OFFSET -0.7359 -41.0265 0
      CHANNELS 3 Zrotation Xrotation Yrotation
      JOINT RightFoot
      {
        OFFSET 0 -40.2855 0
        CHANNELS 3 Zrotation Xrotation Yrotation
        JOINT RightToeBase
        {
          OFFSET 0 -5.6122 11.7359
          CHANNELS 3 Zrotation Xrotation Yrotation
          End Site
          {
            OFFSET 0 0 7.8731
          }
        }
      }
    }
  }
  JOINT LeftUpLeg
  {
    OFFSET 9.1965 3.8864 -0.7581
    CHANNELS 3 Zrotation Xrotation Yrotation
    JOINT LeftLeg
    {
      OFFSET 0.7359 -41.0268 0
      CHANNELS 3 Zrotation Xrotation Yrotation
      JOINT LeftFoot
      {
        OFFSET 0 -40.2855 0
        CHANNELS 3 Zrotation Xrotation Yrotation
        JOINT LeftToeBase
        {
          OFFSET 0 -5.6122 11.7359
          CHANNELS 3 Zrotation Xrotation Yrotation
          End Site
          {
            OFFSET 0 0 7.8731
          }
        }
      }
    }
  }
}
MOTION
Frames:	4
Frame Time:	0.0333333
0.140961 2.58087 6.40636 -180 -89.9981 -180 -0.023792 10.2862 -0.157283 -0.0187975 20.5724 -0.318041 -0.0187975 20.5724 -0.318041 1.60774 8.37756 26.5875 -0.108282 0.690617 24.9915 -7.73476 -0.188525 8.98532 -71.0475 3.15142 28.826 33.4293 6.87927 -74.2591 1.81144 21.4138 -7.84241 -2.45004e-006 2.7898e-007 -2.44648e-007 -2.32975e-006 2.05979e-007 6.00687e-007 -2.12377e-006 2.53573e-006 6.22108e-007 -2.45004e-006 2.7898e-007 -2.44648e-007 -0.0145913 -8.97674e-005 6.9513e-006 -2.12384e-006 2.53565e-006 6.22433e-007 -2.45004e-006 2.7898e-007 -2.44648e-007 -0.0187623 -0.0011786 6.60445e-005 -2.12386e-006 2.53562e-006 6.22545e-007 -2.45004e-006 2.7898e-007 -2.44648e-007 -0.0122733 -0.00324438 0.000681461 -2.1238e-006 2.53566e-006 6.22443e-007 -2.45004e-006 2.7898e-007 -2.44648e-007 -2.32975e-006 2.05979e-007 6.00687e-007 -2.12377e-006 2.53573e-006 6.22108e-007 0.243494 -8.16481 5.2028 57.8188 30.3479 23.5412 40.8505 4.67074 67.714 -30.6068 3.53224 -8.45108 -1.13173e-007 -8.14869e-007 -3.8593e-006 8.88133e-007 2.85799e-006 -3.78604e-006 -1.59028e-015 -7.95139e-016 -3.18055e-015 -1.13173e-007 -8.14869e-007 -3.8593e-006 0.0149975 -9.10167e-005 -7.06527e-007 6.36111e-015 3.18055e-015 -6.36111e-015 -1.13173e-007 -8.14869e-007 -3.8593e-006 0.018994 -0.00118866 -6.41191e-005 -1.59028e-015 -7.95139e-016 -0 -1.13173e-007 -8.14869e-007 -3.8593e-006 0.0122719 -0.00324642 -0.0006772 1.59028e-015 -1.59028e-015 6.36111e-015 -1.13173e-007 -8.14869e-007 -3.8593e-006 8.88133e-007 2.85799e-006 -3.78604e-006 -1.59028e-015 -7.95139e-016 -3.18055e-015 -41.2539 -42.0601 -7.32627 174.349 74.1472 -178.13 -30.5259 34.9542 52.5321 3.62304e-008 1.04435e-008 -2.10073e-007 8.1694 4.5082 -25.4249 -5.63414 4.318 0.178554 14.405 -5.9415 4.73518 3.18055e-015 7.95139e-016 1.98785e-015 
0.140808 2.58084 6.40635 -180 -89.9981 -180 -0.0278186 10.103 -0.156029 -0.0278364 20.2061 -0.314512 -0.0278364 20.2061 -0.314512 1.4971 9.06388 26.6073 -0.10069 0.998104 24.9922 -7.23896 0.0577087 9.22378 -71.4206 3.00523 28.9246 33.4052 6.96072 -74.4679 1.10718 21.8077 -7.35121 -1.19271e-015 5.91384e-015 -1.59028e-015 1.98785e-016 6.16232e-015 -0 -3.97569e-016 6.36111e-015 -0 -1.19271e-015 5.91384e-015 -1.59028e-015 -0.0145961 -8.78706e-005 -5.50732e-007 -2.48282e-032 8.94531e-016 1.59028e-015 -1.19271e-015 5.91384e-015 -1.59028e-015 -0.0187553 -0.00117498 5.45027e-005 5.96354e-016 -6.16232e-015 4.77083e-015 -1.19271e-015 5.91384e-015 -1.59028e-015 -0.0122781 -0.00325105 0.000673774 -7.95139e-016 4.27387e-015 1.59028e-015 -1.19271e-015 5.91384e-015 -1.59028e-015 1.98785e-016 6.16232e-015 -0 -3.97569e-016 6.36111e-015 -0 0.671667 -7.6226 5.46075 57.5554 30.2114 23.6664 41.0036 4.22521 66.7416 -30.2149 3.27281 -8.73396 4.41391e-032 7.95139e-016 -3.18055e-015 0 4.77083e-015 -0 1.59028e-015 1.59028e-015 -0 4.41391e-032 7.95139e-016 -3.18055e-015 0.0149959 -9.22245e-005 -1.12859e-006 1.59028e-015 -3.97569e-015 -0 4.41391e-032 7.95139e-016 -3.18055e-015 0.0190062 -0.00119178 -5.90873e-005 -1.87751e-006 -1.42178e-006 -2.06929e-006 4.41391e-032 7.95139e-016 -3.18055e-015 0.0122791 -0.00324499 -0.00067456 2.20695e-031 -3.97569e-015 3.18055e-015 4.41391e-032 7.95139e-016 -3.18055e-015 0 4.77083e-015 -0 1.59028e-015 1.59028e-015 -0 -40.1386 -42.1633 -5.96827 174.35 74.1469 -178.12 -29.2948 35.3134 51.8746 -4.38261e-007 -9.81612e-009 3.26612e-008 8.16961 4.50839 -25.4249 -5.63414 4.31751 0.17851 14.4049 -5.94128 4.73514 3.32619e-007 -2.21566e-007 -2.04989e-006 
0.140655 2.58081 6.40634 -180 -89.9981 -180 -0.0318318 9.91983 -0.154809 -0.0368144 19.8397 -0.311096 -0.0368143 19.8397 -0.311096 1.38584 9.75097 26.6284 -0.0930992 1.30561 24.9927 -6.74401 0.306108 9.46018 -71.7935 2.85839 29.0223 33.3815 7.04226 -74.6768 0.396953 22.1962 -6.8531 2.32996e-006 -2.06311e-007 -5.99744e-007 2.12364e-006 -2.53627e-006 -6.21822e-007 2.32996e-006 -2.06311e-007 -5.99744e-007 2.32996e-006 -2.06311e-007 -5.99744e-007 -0.0146078 -8.54772e-005 -3.82331e-007 2.32995e-006 -2.06235e-007 -5.99772e-007 2.32996e-006 -2.06311e-007 -5.99744e-007 -0.0187579 -0.00117533 5.67325e-005 2.32995e-006 -2.06214e-007 -5.99802e-007 2.32996e-006 -2.06311e-007 -5.99744e-007 -0.0122712 -0.00324812 0.000684637 2.32993e-006 -2.06261e-007 -5.99832e-007 2.32996e-006 -2.06311e-007 -5.99744e-007 2.12364e-006 -2.53627e-006 -6.21822e-007 2.32996e-006 -2.06311e-007 -5.99744e-007 1.09705 -7.07822 5.71441 57.2928 30.0745 23.7907 41.1492 3.77667 65.7698 -29.8244 3.01141 -9.01505 -1.20946e-006 -2.33597e-006 -4.54853e-006 -1.89408e-006 -1.43957e-006 -1.98967e-006 -1.20946e-006 -2.33597e-006 -4.54853e-006 -1.20946e-006 -2.33597e-006 -4.54853e-006 0.0150196 -8.96726e-005 3.87929e-007 3.18055e-015 -3.97569e-015 6.36111e-015 -1.20946e-006 -2.33597e-006 -4.54853e-006 0.0190113 -0.00119119 -5.7695e-005 1.59028e-015 0 -0 -1.20946e-006 -2.33597e-006 -4.54853e-006 0.0122841 -0.00325316 -0.000680155 -3.18055e-015 2.38542e-015 3.18055e-015 -1.20946e-006 -2.33597e-006 -4.54853e-006 -1.89408e-006 -1.43957e-006 -1.98967e-006 -1.20946e-006 -2.33597e-006 -4.54853e-006 -39.0173 -42.2472 -4.60429 174.35 74.1465 -178.11 -28.0517 35.6612 51.2038 -4.56281e-007 -1.7008e-006 1.60015e-007 8.16965 4.50823 -25.4249 -5.63414 4.31783 0.178537 14.4048 -5.94146 4.73516 1.59028e-015 1.59028e-015 4.37326e-015 
0.140502 2.58079 6.40633 -180 -89.9981 -180 -0.0358319 9.73656 -0.153623 -0.045733 19.4733 -0.307792 -0.045733 19.4733 -0.307792 1.27396 10.4387 26.6509 -0.085521 1.61313 24.9933 -6.24994 0.556573 9.6945 -72.1661 2.71089 29.1191 33.358 7.1239 -74.8856 -0.31923 22.5791 -6.34825 1.58625e-031 5.71506e-015 -1.59028e-015 -2.33003e-006 2.06455e-007 5.99384e-007 1.98785e-016 -9.93923e-017 -0 1.58625e-031 5.71506e-015 -1.59028e-015 -0.0146185 -8.69421e-005 -4.5974e-006 5.96354e-016 1.44119e-015 3.18055e-015 1.58625e-031 5.71506e-015 -1.59028e-015 -0.0187511 -0.00117673 5.72105e-005 1.19271e-015 8.79622e-015 -0 1.58625e-031 5.71506e-015 -1.59028e-015 -0.0122536 -0.003243 0.000668081 9.93923e-016 3.97569e-015 1.59028e-015 1.58625e-031 5.71506e-015 -1.59028e-015 -2.33003e-006 2.06455e-007 5.99384e-007 1.98785e-016 -9.93923e-017 -0 1.51969 -6.53183 5.96381 57.0308 29.9369 23.9141 41.2873 3.32536 64.7989 -29.4351 2.74801 -9.29437 3.18055e-015 3.97569e-015 -3.18055e-015 -1.59028e-015 5.56597e-015 3.18055e-015 -4.77083e-015 2.38542e-015 -0 3.18055e-015 3.97569e-015 -3.18055e-015 0.0149825 -9.43639e-005 -5.30906e-006 -1.59028e-015 -3.97569e-015 3.18055e-015 3.18055e-015 3.97569e-015 -3.18055e-015 0.0189899 -0.0011872 -5.96884e-005 -3.18055e-015 3.18055e-015 -6.36111e-015 3.18055e-015 3.97569e-015 -3.18055e-015 0.0122734 -0.00324101 -0.000677186 1.59028e-015 -9.54166e-015 3.18055e-015 3.18055e-015 3.97569e-015 -3.18055e-015 -1.59028e-015 5.56597e-015 3.18055e-015 -4.77083e-015 2.38542e-015 -0 -37.8902 -42.3121 -3.23481 174.35 74.1452 -178.1 -26.7971 35.9972 50.5202 7.20658e-008 -5.31118e-007 1.28708e-007 8.1698 4.50829 -25.4249 -5.63414 4.31765 0.178519 14.4047 -5.94143 4.73515 2.63716e-006 5.54968e-007 3.43756e-007 
